<svg width="20" height="20" viewBox="0 0 20 20" fill="none" xmlns="http://www.w3.org/2000/svg">
<path d="M8.7876 17.2998C8.91048 17.5126 9.08721 17.6893 9.30003 17.8122C9.51285 17.9351 9.75427 17.9997 10 17.9997C10.2458 17.9997 10.4872 17.9351 10.7 17.8122C10.9128 17.6893 11.0895 17.5126 11.2124 17.2998" stroke="#4B9770" stroke-width="1.5" stroke-linecap="round" stroke-linejoin="round"/>
<path d="M17.0001 8.20004C17.0001 6.59002 16.4401 5.19001 15.6001 4" stroke="#4B9770" stroke-width="1.5" stroke-linecap="round" stroke-linejoin="round"/>
<path d="M3.88309 13.3283C3.79164 13.4285 3.73129 13.5532 3.70938 13.6871C3.68747 13.8209 3.70495 13.9583 3.75968 14.0825C3.81441 14.2066 3.90404 14.3122 4.01767 14.3863C4.13129 14.4605 4.26401 14.5 4.39969 14.5001H15.5998C15.7355 14.5001 15.8682 14.4608 15.9819 14.3868C16.0956 14.3128 16.1853 14.2073 16.2402 14.0833C16.2951 13.9592 16.3127 13.8218 16.291 13.6879C16.2693 13.554 16.2091 13.4293 16.1178 13.329C15.1868 12.3693 14.1998 11.3494 14.1998 8.20004C14.1998 7.08612 13.7573 6.01782 12.9696 5.23016C12.182 4.4425 11.1137 4 9.99974 4C8.88582 4 7.81753 4.4425 7.02987 5.23016C6.24221 6.01782 5.7997 7.08612 5.7997 8.20004C5.7997 11.3494 4.81199 12.3693 3.88309 13.3283Z" stroke="#4B9770" stroke-width="1.5" stroke-linecap="round" stroke-linejoin="round"/>
<path d="M4.40001 4C3.56001 5.19001 3 6.59002 3 8.20004" stroke="#4B9770" stroke-width="1.5" stroke-linecap="round" stroke-linejoin="round"/>
</svg>
