<svg width="20" height="20" viewBox="0 0 20 20" fill="none" xmlns="http://www.w3.org/2000/svg">
<g id="proicons:delete">
<path id="Vector" d="M3.90518 5.17718L5.66602 15.813C5.74656 16.2999 5.99734 16.7424 6.37368 17.0617C6.75003 17.381 7.22749 17.5563 7.72102 17.5563H10.511M16.0927 5.17718L14.3327 15.813C14.2521 16.2999 14.0014 16.7424 13.625 17.0617C13.2487 17.381 12.7712 17.5563 12.2777 17.5563H9.48768M8.35102 9.26301V13.4705M11.6477 9.26301V13.4705M2.29102 5.17718H17.7077M12.3135 5.17718V3.69385C12.3135 3.36233 12.1818 3.04438 11.9474 2.80996C11.713 2.57554 11.395 2.44385 11.0635 2.44385H8.93518C8.60366 2.44385 8.28572 2.57554 8.0513 2.80996C7.81688 3.04438 7.68518 3.36233 7.68518 3.69385V5.17718H12.3135Z" stroke="black" stroke-linecap="round" stroke-linejoin="round"/>
</g>
</svg>
