<svg width="20" height="20" viewBox="0 0 20 20" fill="none" xmlns="http://www.w3.org/2000/svg">
<g id="hugeicons:file-export">
<g id="Group">
<path id="Vector" d="M14.7677 12.9336C15.1388 13.2938 16.6014 14.2539 16.6014 14.7674M16.6014 14.7674C16.6014 15.2808 15.1388 16.241 14.7677 16.6011M16.6014 14.7674H10.7334M9.26644 17.3346H9.06619C6.67498 17.3346 5.47791 17.3346 4.64759 16.7493C4.41129 16.5836 4.20008 16.3847 4.02045 16.1588C3.39844 15.3769 3.39844 14.2517 3.39844 11.9999V10.1331C3.39844 7.95975 3.39844 6.8727 3.74245 6.00497C4.29551 4.60912 5.46471 3.50887 6.94784 2.98809C7.86912 2.66461 9.02292 2.66461 11.3334 2.66461C12.6523 2.66461 13.3124 2.66461 13.8391 2.84945C14.6863 3.14725 15.3545 3.77586 15.6706 4.57318C15.8679 5.06903 15.8679 5.6903 15.8679 6.93211V10.7331" stroke="black" stroke-linecap="round" stroke-linejoin="round"/>
<path id="Vector_2" d="M3.39844 9.99961C3.39844 9.35122 3.65601 8.72939 4.11449 8.27091C4.57297 7.81243 5.1948 7.55486 5.84319 7.55486C6.3317 7.55486 6.9075 7.63994 7.38208 7.51305C7.58944 7.45724 7.77849 7.3479 7.93028 7.19599C8.08206 7.04408 8.19124 6.85493 8.24687 6.64752C8.37377 6.17294 8.28868 5.59714 8.28868 5.10863C8.28888 4.46037 8.54653 3.83873 9.00499 3.3804C9.46345 2.92208 10.0852 2.66461 10.7334 2.66461" stroke="black" stroke-width="1.10025" stroke-linecap="round" stroke-linejoin="round"/>
</g>
</g>
</svg>
