<svg width="19" height="18" viewBox="0 0 19 18" fill="none" xmlns="http://www.w3.org/2000/svg">
<path d="M13.5312 11.64C13.8652 11.9642 15.1815 12.8283 15.1815 13.2904M15.1815 13.2904C15.1815 13.7525 13.8652 14.6167 13.5312 14.9408M15.1815 13.2904H9.90033M8.58003 15.6009H8.39981C6.24772 15.6009 5.17035 15.6009 4.42306 15.0741C4.2104 14.925 4.0203 14.746 3.85864 14.5427C3.29883 13.839 3.29883 12.8263 3.29883 10.7997V9.1196C3.29883 7.16357 3.29883 6.18523 3.60844 5.40427C4.10619 4.14801 5.15847 3.15778 6.49329 2.68908C7.32244 2.39795 8.36086 2.39795 10.4403 2.39795C11.6273 2.39795 12.2214 2.39795 12.6954 2.56431C13.4579 2.83233 14.0593 3.39808 14.3438 4.11566C14.5214 4.56192 14.5214 5.12107 14.5214 6.2387V9.6596" stroke="black" stroke-width="0.75" stroke-linecap="round" stroke-linejoin="round"/>
<path d="M3.29883 8.99945C3.29883 8.4159 3.53064 7.85625 3.94328 7.44362C4.35591 7.03098 4.91556 6.79917 5.49911 6.79917C5.93877 6.79917 6.45699 6.87575 6.8841 6.76154C7.07073 6.71131 7.24088 6.61291 7.37748 6.47619C7.51409 6.33947 7.61235 6.16924 7.66242 5.98256C7.77663 5.55545 7.70005 5.03723 7.70005 4.59757C7.70022 4.01413 7.93211 3.45465 8.34473 3.04216C8.75734 2.62967 9.31689 2.39795 9.90033 2.39795" stroke="black" stroke-width="0.75" stroke-linecap="round" stroke-linejoin="round"/>
</svg>
