<svg width="16" height="17" viewBox="0 0 16 17" fill="none" xmlns="http://www.w3.org/2000/svg">
<g id="Frame" clipPath="url(#clip0_1546_5842)">
<g id="Group">
<path id="Vector" d="M4.92539 8.31789H3.09961V6.5403H4.92539V8.31789ZM4.92539 11.3914H3.09961V9.6138H4.92539V11.3914ZM4.92539 14.4648H3.09961V12.6873H4.92539V14.4648Z" stroke="#2E2E2E" stroke-width="0.7" stroke-miterlimit="10" stroke-linecap="round" stroke-linejoin="round"/>
<g id="Clip path group">
<g id="Group_2">
<path id="Vector_2" d="M11.4551 5.73218V3.7771H6.48242V16.1876H11.4551" stroke="#2E2E2E" stroke-width="0.7" stroke-miterlimit="10" stroke-linecap="round" stroke-linejoin="round"/>
</g>
</g>
<path id="Vector_3" d="M7.2168 3.7771H10.7203V1.93398H7.2168V3.7771Z" stroke="#2E2E2E" stroke-width="0.7" stroke-miterlimit="10" stroke-linecap="round" stroke-linejoin="round"/>
<path id="Vector_4" d="M8.14844 6.46831V13.9828" stroke="#2E2E2E" stroke-width="0.7" stroke-miterlimit="10" stroke-linecap="round" stroke-linejoin="round"/>
<g id="Clip path group_2">
<g id="Group_3">
<path id="Vector_5" d="M8.88086 0.812608V1.82373" stroke="#2E2E2E" stroke-width="0.7" stroke-miterlimit="10" stroke-linecap="round" stroke-linejoin="round"/>
<path id="Vector_6" d="M6.48256 16.1876H1.54102V4.99559H6.48256V16.1876ZM14.4581 16.1876H9.78968V5.83547H14.4581V16.1876Z" stroke="#2E2E2E" stroke-width="0.7" stroke-miterlimit="10" stroke-linecap="round" stroke-linejoin="round"/>
</g>
</g>
<path id="Vector_7" d="M11.4629 7.90442H12.7838" stroke="#2E2E2E" stroke-width="0.7" stroke-miterlimit="10" stroke-linecap="round" stroke-linejoin="round"/>
<path id="Vector_8" d="M11.4629 9.47119H12.7838" stroke="#2E2E2E" stroke-width="0.7" stroke-miterlimit="10" stroke-linecap="round" stroke-linejoin="round"/>
<path id="Vector_9" d="M11.4629 11.038H12.7838" stroke="#2E2E2E" stroke-width="0.7" stroke-miterlimit="10" stroke-linecap="round" stroke-linejoin="round"/>
<g id="Clip path group_3">
<g id="Group_4">
<path id="Vector_10" d="M12.8058 16.1876V13.3125H11.4395V16.1876" stroke="#2E2E2E" stroke-width="0.7" stroke-miterlimit="10" stroke-linecap="round" stroke-linejoin="round"/>
<path id="Vector_11" d="M0.810547 16.1876H15.1833" stroke="#2E2E2E" stroke-width="0.7" stroke-miterlimit="10" stroke-linecap="round" stroke-linejoin="round"/>
</g>
</g>
</g>
</g>
<defs>
<clipPath id="clip0_1546_5842">
<rect width="16" height="16" fill="white" transform="translate(0 0.5)"/>
</clipPath>
</defs>
</svg>
