<svg width="20" height="20" viewBox="0 0 20 20" fill="none" xmlns="http://www.w3.org/2000/svg">
<g clipPath="url(#clip0_1546_7155)">
<path d="M6.15722 9.77237H3.875V7.55038H6.15722V9.77237ZM6.15722 13.6142H3.875V11.3922H6.15722V13.6142ZM6.15722 17.4561H3.875V15.2341H6.15722V17.4561Z" stroke="#9B9698" stroke-width="0.875" stroke-miterlimit="10" stroke-linecap="round" stroke-linejoin="round"/>
<path d="M14.3174 6.54008V4.09622H8.10156V19.6094H14.3174" stroke="#9B9698" stroke-width="0.875" stroke-miterlimit="10" stroke-linecap="round" stroke-linejoin="round"/>
<path d="M9.01953 4.09668H13.3989V1.79278H9.01953V4.09668Z" stroke="#9B9698" stroke-width="0.875" stroke-miterlimit="10" stroke-linecap="round" stroke-linejoin="round"/>
<path d="M10.1855 7.45993V16.853" stroke="#9B9698" stroke-width="0.875" stroke-miterlimit="10" stroke-linecap="round" stroke-linejoin="round"/>
<path d="M11.1016 0.39015V1.65405" stroke="#9B9698" stroke-width="0.875" stroke-miterlimit="10" stroke-linecap="round" stroke-linejoin="round"/>
<path d="M8.10272 19.6094H1.92578V5.61934H8.10272V19.6094ZM18.0722 19.6094H12.2366V6.66918H18.0722V19.6094Z" stroke="#9B9698" stroke-width="0.875" stroke-miterlimit="10" stroke-linecap="round" stroke-linejoin="round"/>
<path d="M14.3281 9.25537H15.9792" stroke="#9B9698" stroke-width="0.875" stroke-miterlimit="10" stroke-linecap="round" stroke-linejoin="round"/>
<path d="M14.3281 11.2134H15.9792" stroke="#9B9698" stroke-width="0.875" stroke-miterlimit="10" stroke-linecap="round" stroke-linejoin="round"/>
<path d="M14.3281 13.1726H15.9792" stroke="#9B9698" stroke-width="0.875" stroke-miterlimit="10" stroke-linecap="round" stroke-linejoin="round"/>
<path d="M16.0048 19.6094V16.0155H14.2969V19.6094" stroke="#9B9698" stroke-width="0.875" stroke-miterlimit="10" stroke-linecap="round" stroke-linejoin="round"/>
<path d="M1.01172 19.6094H18.9777" stroke="#9B9698" stroke-width="0.875" stroke-miterlimit="10" stroke-linecap="round" stroke-linejoin="round"/>
</g>
<defs>
<clipPath id="clip0_1546_7155">
<rect width="20" height="20" fill="white"/>
</clipPath>
</defs>
</svg>
