<svg width="20" height="20" viewBox="0 0 20 20" fill="none" xmlns="http://www.w3.org/2000/svg">
<g clipPath="url(#clip0_1546_7149)">
<path d="M9.96094 15.8984C9.96094 16.5457 9.43629 17.0703 8.78906 17.0703H7.61719V19.4141H0.585938V12.3828H2.92969V13.531C2.92969 14.1713 3.43344 14.7113 4.07363 14.7263C4.40813 14.7341 4.71187 14.6014 4.93008 14.3832C5.14219 14.1711 5.27344 13.8781 5.27344 13.5547V12.3828H7.61719V14.7266H8.78906C9.43629 14.7266 9.96094 15.2512 9.96094 15.8984Z" stroke="#9B9698" stroke-width="0.8" stroke-miterlimit="10" stroke-linecap="round" stroke-linejoin="round"/>
<path d="M7.61719 12.3828V10.0391H6.44531C5.79805 10.0391 5.27344 9.51445 5.27344 8.86719C5.27344 8.54375 5.40469 8.25078 5.6168 8.03867C5.82891 7.82656 6.12188 7.69531 6.44531 7.69531H7.61719V5.35156H0.585938V12.3828H2.92969V13.5547C2.92969 14.202 3.4543 14.7266 4.10156 14.7266C4.425 14.7266 4.71797 14.5953 4.93008 14.3832C5.14219 14.1711 5.27344 13.8781 5.27344 13.5547V12.3828H7.61719ZM7.61719 12.3828V14.7266H8.78906C9.43629 14.7266 9.96094 15.2512 9.96094 15.8984C9.96094 16.5457 9.43629 17.0703 8.78906 17.0703H7.61719V19.4141H14.6484V17.0703H15.8203C16.1437 17.0703 16.4367 16.9391 16.6488 16.727C16.8672 16.5086 16.9996 16.2051 16.9918 15.8703C16.977 15.2305 16.4371 14.7266 15.7965 14.7266H14.6484V12.3828H12.3047V11.2346C12.3047 10.5943 11.8009 10.0543 11.1607 10.0394C10.8263 10.0316 10.5225 10.1642 10.3043 10.3824C10.0922 10.5945 9.96094 10.8875 9.96094 11.2109V12.3828H7.61719ZM19.4141 0.585938V7.61719H17.0703V6.44531C17.0703 6.12188 16.9391 5.82891 16.727 5.6168C16.5148 5.40469 16.2219 5.27344 15.8984 5.27344C15.2512 5.27344 14.7266 5.79805 14.7266 6.44531V7.61719H12.3828V5.27344H11.2109C10.8875 5.27344 10.5945 5.14219 10.3824 4.93008C10.1703 4.71797 10.0391 4.425 10.0391 4.10156C10.0391 3.4543 10.5637 2.92969 11.2109 2.92969H12.3828V0.585938H19.4141Z" stroke="#9B9698" stroke-width="0.8" stroke-miterlimit="10" stroke-linecap="round" stroke-linejoin="round"/>
</g>
<defs>
<clipPath id="clip0_1546_7149">
<rect width="20" height="20" fill="white"/>
</clipPath>
</defs>
</svg>
