<svg width="16" height="17" viewBox="0 0 16 17" fill="none" xmlns="http://www.w3.org/2000/svg">
<g id="Frame" clipPath="url(#clip0_1546_5811)">
<g id="Group">
<path id="Vector" d="M7.96875 13.2188C7.96875 13.7365 7.54903 14.1562 7.03125 14.1562H6.09375V16.0312H0.46875V10.4062H2.34375V11.3248C2.34375 11.8371 2.74675 12.2691 3.25891 12.281C3.5265 12.2873 3.7695 12.1811 3.94406 12.0066C4.11375 11.8369 4.21875 11.6025 4.21875 11.3438V10.4062H6.09375V12.2812H7.03125C7.54903 12.2812 7.96875 12.701 7.96875 13.2188Z" stroke="#2E2E2E" stroke-width="0.8" stroke-miterlimit="10" stroke-linecap="round" stroke-linejoin="round"/>
<path id="Vector_2" d="M6.09375 10.4062V8.53125H5.15625C4.63844 8.53125 4.21875 8.11156 4.21875 7.59375C4.21875 7.335 4.32375 7.10062 4.49344 6.93094C4.66312 6.76125 4.8975 6.65625 5.15625 6.65625H6.09375V4.78125H0.46875V10.4062H2.34375V11.3438C2.34375 11.8616 2.76344 12.2812 3.28125 12.2812C3.54 12.2812 3.77437 12.1762 3.94406 12.0066C4.11375 11.8369 4.21875 11.6025 4.21875 11.3438V10.4062H6.09375ZM6.09375 10.4062V12.2812H7.03125C7.54903 12.2812 7.96875 12.701 7.96875 13.2188C7.96875 13.7365 7.54903 14.1562 7.03125 14.1562H6.09375V16.0312H11.7188V14.1562H12.6562C12.915 14.1562 13.1494 14.0512 13.3191 13.8816C13.4937 13.7069 13.5997 13.4641 13.5934 13.1962C13.5816 12.6844 13.1497 12.2812 12.6372 12.2812H11.7188V10.4062H9.84375V9.48772C9.84375 8.97544 9.44075 8.54347 8.92859 8.5315C8.66103 8.52528 8.418 8.63138 8.24344 8.80594C8.07375 8.97563 7.96875 9.21 7.96875 9.46875V10.4062H6.09375ZM15.5312 0.96875V6.59375H13.6562V5.65625C13.6562 5.3975 13.5512 5.16312 13.3816 4.99344C13.2119 4.82375 12.9775 4.71875 12.7188 4.71875C12.2009 4.71875 11.7812 5.13844 11.7812 5.65625V6.59375H9.90625V4.71875H8.96875C8.71 4.71875 8.47563 4.61375 8.30594 4.44406C8.13625 4.27437 8.03125 4.04 8.03125 3.78125C8.03125 3.26344 8.45094 2.84375 8.96875 2.84375H9.90625V0.96875H15.5312Z" stroke="#2E2E2E" stroke-width="0.8" stroke-miterlimit="10" stroke-linecap="round" stroke-linejoin="round"/>
</g>
</g>
<defs>
<clipPath id="clip0_1546_5811">
<rect width="16" height="16" fill="white" transform="translate(0 0.5)"/>
</clipPath>
</defs>
</svg>
