<svg width="20" height="20" viewBox="0 0 20 20" fill="none" xmlns="http://www.w3.org/2000/svg">
<g clip-path="url(#clip0_3780_16572)">
<path d="M18.5937 9.99805C18.5937 14.8247 14.8267 18.5918 10 18.5918C5.17337 18.5918 1.40625 14.8247 1.40625 9.99805C1.40625 5.17142 5.17337 1.4043 10 1.4043C14.8267 1.4043 18.5937 5.17142 18.5937 9.99805Z" stroke="white" stroke-width="1.5" stroke-miterlimit="10" stroke-linecap="round" stroke-linejoin="round"/>
<path d="M12.9142 8.54097C12.9142 10.1499 11.61 11.4541 10.001 11.4541C8.39214 11.4541 7.08789 10.1499 7.08789 8.54097C7.08789 6.93208 8.39214 5.62783 10.001 5.62783C11.61 5.62783 12.9142 6.93208 12.9142 8.54097Z" stroke="white" stroke-width="1.2" stroke-miterlimit="10" stroke-linecap="round" stroke-linejoin="round"/>
<path d="M15.4562 16.6914C14.6275 14.4834 12.497 12.9119 9.99956 12.9119C7.50206 12.9119 5.37161 14.4834 4.54297 16.6914" stroke="white" stroke-width="1.5" stroke-miterlimit="10" stroke-linecap="round" stroke-linejoin="round"/>
</g>
<defs>
<clipPath id="clip0_3780_16572">
<rect width="20" height="20" fill="white"/>
</clipPath>
</defs>
</svg>
