<svg width="16" height="17" viewBox="0 0 16 17" fill="none" xmlns="http://www.w3.org/2000/svg">
<g id="Frame">
<g id="Group">
<path id="Vector" d="M6.94969 4.3C6.94969 4.87989 7.4198 5.35 7.99969 5.35H9.04969C9.62958 5.35 10.0997 4.87989 10.0997 4.3C10.0997 3.72011 9.62958 3.25 9.04969 3.25H7.99969C7.4198 3.25 6.94969 3.72011 6.94969 4.3ZM6.94969 4.3H1.80469M3.79969 8.5C3.79969 9.07989 4.2698 9.55 4.84969 9.55H5.89969C6.47958 9.55 6.94969 9.07989 6.94969 8.5C6.94969 7.92011 6.47958 7.45 5.89969 7.45H4.84969C4.2698 7.45 3.79969 7.92011 3.79969 8.5ZM3.79969 8.5H1.80469M6.94969 12.7C6.94969 13.2799 7.4198 13.75 7.99969 13.75H9.04969C9.62958 13.75 10.0997 13.2799 10.0997 12.7C10.0997 12.1201 9.62958 11.65 9.04969 11.65H7.99969C7.4198 11.65 6.94969 12.1201 6.94969 12.7ZM6.94969 12.7H1.80469M12.1997 4.3H14.1947M9.04969 8.5H14.1947M12.1997 12.7H14.1947" stroke="#2E2E2E" stroke-width="0.84" stroke-miterlimit="10" stroke-linecap="round" stroke-linejoin="round"/>
</g>
</g>
</svg>
