<svg width="20" height="20" viewBox="0 0 20 20" fill="none" xmlns="http://www.w3.org/2000/svg">
<path d="M8.68711 4.75C8.68711 5.47486 9.27475 6.0625 9.99961 6.0625H11.3121C12.037 6.0625 12.6246 5.47486 12.6246 4.75C12.6246 4.02514 12.037 3.4375 11.3121 3.4375H9.99961C9.27475 3.4375 8.68711 4.02514 8.68711 4.75ZM8.68711 4.75H2.25586M4.74961 10C4.74961 10.7249 5.33725 11.3125 6.06211 11.3125H7.37461C8.09947 11.3125 8.68711 10.7249 8.68711 10C8.68711 9.27514 8.09947 8.6875 7.37461 8.6875H6.06211C5.33725 8.6875 4.74961 9.27514 4.74961 10ZM4.74961 10H2.25586M8.68711 15.25C8.68711 15.9749 9.27475 16.5625 9.99961 16.5625H11.3121C12.037 16.5625 12.6246 15.9749 12.6246 15.25C12.6246 14.5251 12.037 13.9375 11.3121 13.9375H9.99961C9.27475 13.9375 8.68711 14.5251 8.68711 15.25ZM8.68711 15.25H2.25586M15.2496 4.75H17.7434M11.3121 10H17.7434M15.2496 15.25H17.7434" stroke="#E9E9E9" stroke-width="1.5" stroke-miterlimit="10" stroke-linecap="round" stroke-linejoin="round"/>
</svg>
