<svg width="19" height="18" viewBox="0 0 19 18" fill="none" xmlns="http://www.w3.org/2000/svg">
<path d="M14.9751 8.35216C14.7416 8.35216 14.586 8.50782 14.586 8.74131V11.7767C14.586 13.2554 13.3796 14.4229 11.9397 14.4229H6.18036C4.7016 14.4229 3.53416 13.2554 3.53416 11.7767V6.01728C3.53416 4.53851 4.74051 3.37107 6.18036 3.37107H9.09897C9.33246 3.37107 9.48812 3.21541 9.48812 2.98192C9.48812 2.74843 9.33246 2.59277 9.09897 2.59277H6.18036C4.27354 2.59277 2.75586 4.14936 2.75586 6.01728V11.7767C2.75586 13.6835 4.31245 15.2012 6.18036 15.2012H11.9397C13.8466 15.2012 15.3643 13.6835 15.3643 11.7767V8.74131C15.3643 8.54674 15.2086 8.35216 14.9751 8.35216Z" fill="black"/>
<path d="M7.54391 9.4415C7.46608 9.63607 7.58282 9.86956 7.7774 9.94739H7.89414C8.0498 9.94739 8.20546 9.83065 8.28329 9.67499C9.25616 7.14552 11.5132 5.27762 14.1983 4.84955L13.2644 6.48397C13.1476 6.67855 13.2255 6.91204 13.42 7.02878C13.459 7.0677 13.5368 7.0677 13.6146 7.0677C13.7703 7.0677 13.887 6.98987 13.9649 6.87312L15.3269 4.42149C15.4436 4.22692 15.3658 3.99343 15.1712 3.87668L12.6417 2.47575C12.4472 2.35901 12.2137 2.43684 12.0969 2.63141C11.9802 2.82598 12.058 3.05947 12.2526 3.17622L13.9259 4.11017C11.0073 4.61606 8.59461 6.63963 7.54391 9.4415Z" fill="black"/>
</svg>
