<svg width="16" height="17" viewBox="0 0 16 17" fill="none" xmlns="http://www.w3.org/2000/svg">
<g id="Frame 23">
<g id="Group 9">
<g id="Group 7">
<path id="Polygon 6" d="M14.3646 2.13865C14.3646 2.13865 14.1252 4.68619 12.993 5.82928C11.8512 6.98203 8.70847 7.79479 8.70847 7.79479C8.70847 7.79479 9.52123 4.65208 10.674 3.51027C11.8171 2.37802 14.3646 2.13865 14.3646 2.13865Z" fill="#954767"/>
<path id="Polygon 8" d="M1.63609 2.13796C1.63609 2.13796 4.18363 2.37732 5.32672 3.50957C6.47947 4.65138 7.29223 7.79409 7.29223 7.79409C7.29223 7.79409 4.14951 6.98133 3.0077 5.82859C1.87546 4.6855 1.63609 2.13796 1.63609 2.13796Z" fill="#954767"/>
<path id="Polygon 7" d="M1.63609 14.8636C1.63609 14.8636 4.18363 14.6243 5.32672 13.492C6.47947 12.3502 7.29223 9.20749 7.29223 9.20749C7.29223 9.20749 4.14951 10.0203 3.0077 11.173C1.87546 12.3161 1.63609 14.8636 1.63609 14.8636Z" fill="#954767"/>
<path id="Polygon 9" d="M14.3646 14.8646C14.3646 14.8646 14.1252 12.3171 12.993 11.174C11.8512 10.0213 8.70847 9.20851 8.70847 9.20851C8.70847 9.20851 9.52123 12.3512 10.674 13.493C11.8171 14.6253 14.3646 14.8646 14.3646 14.8646Z" fill="#954767"/>
</g>
<g id="Group 8">
<path id="Polygon 6_2" d="M8.00133 2.1355C8.00133 2.1355 9.15542 3.52895 9.16084 4.66663C9.16631 5.81391 8.00133 7.79165 8.00133 7.79165C8.00133 7.79165 6.83635 5.81391 6.84182 4.66663C6.84724 3.52895 8.00133 2.1355 8.00133 2.1355Z" fill="#954767"/>
<path id="Polygon 8_2" d="M1.63672 8.49843C1.63672 8.49843 3.03017 7.34434 4.16785 7.33892C5.31513 7.33345 7.29287 8.49843 7.29287 8.49843C7.29287 8.49843 5.31513 9.66341 4.16785 9.65794C3.03017 9.65252 1.63672 8.49843 1.63672 8.49843Z" fill="#954767"/>
<path id="Polygon 7_2" d="M8.00133 14.8623C8.00133 14.8623 9.15542 13.4688 9.16084 12.3312C9.16631 11.1839 8.00133 9.20615 8.00133 9.20615C8.00133 9.20615 6.83635 11.1839 6.84182 12.3312C6.84724 13.4688 8.00133 14.8623 8.00133 14.8623Z" fill="#954767"/>
<path id="Polygon 9_2" d="M14.3633 8.49843C14.3633 8.49843 12.9698 7.34434 11.8322 7.33892C10.6849 7.33345 8.70713 8.49843 8.70713 8.49843C8.70713 8.49843 10.6849 9.66341 11.8322 9.65794C12.9698 9.65252 14.3633 8.49843 14.3633 8.49843Z" fill="#954767"/>
</g>
</g>
</g>
</svg>
