<svg width="17" height="17" viewBox="0 0 17 17" fill="none" xmlns="http://www.w3.org/2000/svg">
<path d="M15.375 8.49902C15.375 12.3603 12.3613 15.374 8.5 15.374C4.6387 15.374 1.625 12.3603 1.625 8.49902C1.625 4.63772 4.6387 1.62402 8.5 1.62402C12.3613 1.62402 15.375 4.63772 15.375 8.49902Z" stroke="#E9E9E9" stroke-width="0.932206" stroke-miterlimit="10" stroke-linecap="round" stroke-linejoin="round"/>
<path d="M10.8309 7.33355C10.8309 8.62066 9.78757 9.66406 8.50043 9.66406C7.21332 9.66406 6.16992 8.62066 6.16992 7.33355C6.16992 6.04644 7.21332 5.00305 8.50043 5.00305C9.78757 5.00305 10.8309 6.04644 10.8309 7.33355Z" stroke="#E9E9E9" stroke-width="0.932206" stroke-miterlimit="10" stroke-linecap="round" stroke-linejoin="round"/>
<path d="M12.8653 13.8535C12.2024 12.0871 10.498 10.8299 8.50004 10.8299C6.50204 10.8299 4.79768 12.0871 4.13477 13.8535" stroke="#E9E9E9" stroke-width="0.932206" stroke-miterlimit="10" stroke-linecap="round" stroke-linejoin="round"/>
</svg>
