<svg width="26" height="26" viewBox="0 0 26 26" fill="none" xmlns="http://www.w3.org/2000/svg">
<path d="M14.2465 13.8312L15.3531 13.5546C15.93 13.4103 15.93 12.5905 15.3531 12.4463L14.2465 12.1696C14.146 12.1445 14.0543 12.0926 13.9811 12.0194C13.9079 11.9462 13.856 11.8544 13.8308 11.754L13.5542 10.6473C13.41 10.0705 12.5901 10.0705 12.4459 10.6473L12.1692 11.754C12.1441 11.8544 12.0922 11.9461 12.019 12.0193C11.9458 12.0925 11.8541 12.1445 11.7537 12.1696L10.647 12.4463C10.0701 12.5905 10.0701 13.4103 10.647 13.5546L11.7537 13.8312C11.8541 13.8564 11.9458 13.9083 12.019 13.9815C12.0922 14.0547 12.1441 14.1464 12.1692 14.2469L12.4459 15.3535C12.5901 15.9303 13.41 15.9303 13.5542 15.3535L13.8308 14.2469C13.856 14.1464 13.9079 14.0547 13.9811 13.9815C14.0543 13.9083 14.146 13.8563 14.2465 13.8312Z" stroke="#A09F9B" strokeWidth="0.928571" strokeMiterlimit="10" strokeLinecap="round" strokeLinejoin="round"/>
<path d="M6.32153 12.1602C6.73484 8.83943 9.56726 6.26965 12.9999 6.26965C14.6707 6.26965 16.1993 6.87846 17.3759 7.88642" stroke="#A09F9B" strokeWidth="0.928571" strokeMiterlimit="10" strokeLinecap="round" strokeLinejoin="round"/>
<path d="M17.1898 18.2675C16.0401 19.1832 14.5839 19.7305 12.9999 19.7305C9.56716 19.7305 6.73469 17.1605 6.32153 13.8397" stroke="#A09F9B" strokeWidth="0.928571" strokeMiterlimit="10" strokeLinecap="round" strokeLinejoin="round"/>
<path d="M18.9476 9.84696C19.447 10.7874 19.73 11.8604 19.73 12.9995C19.73 14.5835 19.1828 16.0398 18.2671 17.1895" stroke="#A09F9B" strokeWidth="0.928571" strokeMiterlimit="10" strokeLinecap="round" strokeLinejoin="round"/>
<path d="M13.8414 23.0611C13.5615 23.0842 13.2809 23.0957 13.0001 23.0957C7.42461 23.0957 2.90479 18.5759 2.90479 13.0004C2.90479 11.1616 3.3964 9.43762 4.25541 7.95268" stroke="#A09F9B" strokeWidth="0.928571" strokeMiterlimit="10" strokeLinecap="round" strokeLinejoin="round"/>
<path d="M19.9644 20.4282C19.082 21.3589 18.3868 21.638 17.2065 22.1797" stroke="#A09F9B" strokeWidth="0.928571" strokeMiterlimit="10" strokeLinecap="round" strokeLinejoin="round"/>
<path d="M9.59766 3.49781C10.6502 3.12579 11.7829 2.92332 12.9628 2.92332C18.5383 2.92332 23.0581 7.44315 23.0581 13.0186C23.0581 15.1046 22.9054 16.0335 21.8214 17.6426" stroke="#A09F9B" strokeWidth="0.928571" strokeMiterlimit="10" strokeLinecap="round" strokeLinejoin="round"/>
<path d="M19.5153 8.79375C19.5153 9.49067 18.9503 10.0557 18.2534 10.0557C17.5564 10.0557 16.9915 9.49067 16.9915 8.79375C16.9915 8.09678 17.5564 7.53179 18.2534 7.53179C18.9503 7.53179 19.5153 8.09678 19.5153 8.79375Z" stroke="#A09F9B" strokeWidth="0.928571" strokeMiterlimit="10" strokeLinecap="round" strokeLinejoin="round"/>
<path d="M6.23818 6.83282C6.23818 7.52974 5.67324 8.09473 4.97627 8.09473C4.27935 8.09473 3.71436 7.52974 3.71436 6.83282C3.71436 6.13585 4.27935 5.57086 4.97627 5.57086C5.67324 5.57086 6.23818 6.13585 6.23818 6.83282Z" stroke="#A09F9B" strokeWidth="0.928571" strokeMiterlimit="10" strokeLinecap="round" strokeLinejoin="round"/>
<path d="M22.2857 19.0359C22.2857 19.8051 21.6621 20.4287 20.8929 20.4287C20.1236 20.4287 19.5 19.8051 19.5 19.0359C19.5 18.2666 20.1236 17.643 20.8929 17.643C21.6621 17.643 22.2857 18.2666 22.2857 19.0359Z" stroke="#A09F9B" strokeWidth="0.928571" strokeMiterlimit="10" strokeLinecap="round" strokeLinejoin="round"/>
</svg>
