<svg width="135" height="28" viewBox="0 0 135 28" fill="none" xmlns="http://www.w3.org/2000/svg">
<path d="M112.207 27.8701H90.2489V24.1758L102.038 8.85882L106.147 4.00223L102.204 4.20977H91.0791V2.13431V0.0588412L106.02 0V4.00891L111.185 4.00223L111.377 3.75317L98.7998 20.0663L95.5206 23.9267L98.7168 23.7192H112.207V25.7946V27.8701Z" fill="white"/>
<path d="M125.984 27.8701H123.639H121.294V4.20977H112.784V2.13431V0.0588412H125.984H134.535V4.20977H129.5V0.0588412H125.984V4.20977V27.8701Z" fill="white"/>
<path d="M70.2267 27.8701H67.8814H65.5361V0.0588604V7.48903H69.8946V0.0588604L81.1437 16.2475L83.8833 20.606L83.5927 15.3343V0.0588604H85.938H88.2833V21.0825V27.8701H83.9663L72.4267 11.4324L69.8946 7.48903L70.2267 12.5532V27.8701Z" fill="white"/>
<path fill-rule="evenodd" clip-rule="evenodd" d="M11.9561 27.8708V3.50015H21.1352V0.396063H11.9561H8.8329H0V1.76248V3.50015H6.12499V0.396063H8.8329V3.50015V27.8708H11.9561Z" fill="white"/>
<path fill-rule="evenodd" clip-rule="evenodd" d="M47.1786 26.5362C48.6101 27.5122 50.4157 28.0002 52.5955 28.0002C54.2547 28.0002 55.7187 27.7074 56.9875 27.1218C58.2564 26.5037 59.2812 25.6578 60.062 24.5842C60.8428 23.5106 61.3471 22.3068 61.5748 20.9729H60.0376H58.5004C58.2401 22.3068 57.5569 23.3642 56.4507 24.145C55.3771 24.9258 54.0758 25.3162 52.5467 25.3162C50.4971 25.3162 48.9029 24.6655 47.7642 23.3642C46.6581 22.0303 46.105 20.2084 46.105 17.8985H58.4028H61.6236V17.2641C61.6236 17.0038 61.6073 16.8086 61.5748 16.6785C61.4772 14.8241 61.0217 13.2137 60.2084 11.8472C59.4276 10.4808 58.3702 9.43974 57.0363 8.724C55.735 7.97573 54.2222 7.60159 52.4979 7.60159C50.5133 7.60159 48.8053 8.05706 47.3738 8.968C45.9749 9.87895 44.9013 11.1152 44.153 12.6768C43.6434 13.7656 43.4042 14.3139 43.2574 15.5675H46.1723L46.034 17.8985H43.0802C43.0984 19.5387 43.4235 21.1328 44.0554 22.681C44.7386 24.2426 45.7797 25.5277 47.1786 26.5362ZM58.4028 15.5675H46.2026C46.3002 14.8518 46.4792 14.759 46.7394 14.0433C47.0322 13.3275 47.4226 12.6931 47.9106 12.14C48.4312 11.5544 49.0656 11.099 49.8139 10.7736C50.5621 10.4158 51.4405 10.2368 52.4491 10.2368C53.5878 10.2368 54.5312 10.4483 55.2795 10.8712C56.0278 11.2942 56.6297 11.831 57.0851 12.4816C57.5406 13.0998 57.866 13.7505 58.0612 14.4337C58.2889 15.0843 58.4028 15.047 58.4028 15.5675Z" fill="white"/>
<path fill-rule="evenodd" clip-rule="evenodd" d="M22.7776 27.8708V0.396063H24.3636L25.9496 0.467156V12.9378C25.8689 13.761 25.9496 16.8684 25.9496 16.8684C25.9496 16.8684 25.9496 18.0398 25.9496 18.4523V27.8708H22.7776ZM30.1583 8.50602C30.1274 8.51564 30.5633 8.35792 30.5328 8.36796L30.625 8.31264L30.1583 8.50602ZM30.1583 8.50602C30.865 8.28634 32.1482 8.00895 33.0745 8.00895C34.4409 8.00895 35.5796 8.22042 36.4906 8.64336C37.4015 9.03376 38.1335 9.58683 38.6866 10.3026C39.2397 11.0183 39.6463 11.8317 39.9066 12.7426C40.1994 13.621 40.3946 14.5157 40.4922 15.4266C40.5898 16.3376 40.6386 17.216 40.6386 18.0619V27.8708H37.5642V18.0619C37.5642 16.6304 37.4015 15.3778 37.0762 14.3042C36.7834 13.1981 36.2466 12.3522 35.4658 11.7666C33.0745 9.76781 30.1583 10.9376 30.1583 10.9376V8.50602Z" fill="white"/>
</svg>
