<svg width="26" height="26" viewBox="0 0 26 26" fill="none" xmlns="http://www.w3.org/2000/svg">
<mask id="mask0_432_356" style="mask-type:luminance" maskUnits="userSpaceOnUse" x="2" y="2" width="22" height="22">
<path d="M22.7223 22.7218V3.27724H3.27769V22.7218H22.7223Z" fill="white" stroke="white" strokeWidth="0.845417"/>
</mask>
<g mask="url(#mask0_432_356)">
<path d="M14.6812 18.043L21.1578 11.5664C23.0149 9.70933 23.0149 6.69832 21.1578 4.84119C19.3006 2.98406 16.2896 2.98406 14.4325 4.84119L13 6.2737" stroke="#A09F9B" strokeWidth="0.845417" strokeMiterlimit="10"/>
<path d="M11.3187 7.95534L4.84231 14.4317C2.98518 16.2888 2.98518 19.2998 4.84231 21.157C6.6994 23.0141 9.7104 23.0141 11.5675 21.157L12.9999 19.7246" stroke="#A09F9B" strokeWidth="0.845417" strokeMiterlimit="10"/>
<path d="M11.3186 18.0431L9.88607 19.4756C8.95899 20.4027 7.45051 20.4027 6.52343 19.4756C5.59636 18.5485 5.59636 17.04 6.52343 16.113L12.9998 9.6366" stroke="#A09F9B" strokeWidth="0.845417" strokeMiterlimit="10"/>
<path d="M14.6813 7.95481L16.1138 6.52234C17.0408 5.59526 18.5493 5.59526 19.4764 6.52234C20.4035 7.44942 20.4035 8.9579 19.4764 9.88494L13 16.3613" stroke="#A09F9B" strokeWidth="0.845417" strokeMiterlimit="10"/>
<path d="M7.95605 14.6804L14.4326 21.157C16.2897 23.0141 19.3007 23.0141 21.1578 21.157C23.015 19.2999 23.015 16.2889 21.1578 14.4317L19.7254 12.9993" stroke="#A09F9B" strokeWidth="0.845417" strokeMiterlimit="10"/>
<path d="M18.0441 11.3179L11.5675 4.84137C9.71044 2.98429 6.69944 2.98429 4.84231 4.84137C2.98518 6.6985 2.98518 9.70951 4.84231 11.5666L6.2747 12.999" stroke="#A09F9B" strokeWidth="0.845417" strokeMiterlimit="10"/>
<path d="M7.95582 11.3175L6.52343 9.8851C5.59636 8.95803 5.59636 7.44955 6.52343 6.52247C7.45051 5.59539 8.95899 5.59539 9.88607 6.52247L16.3626 12.999" stroke="#A09F9B" strokeWidth="0.845417" strokeMiterlimit="10"/>
<path d="M18.044 14.6806L19.4764 16.113C20.4035 17.04 20.4035 18.5485 19.4764 19.4756C18.5493 20.4027 17.0408 20.4027 16.1138 19.4756L9.63721 12.999" stroke="#A09F9B" strokeWidth="0.845417" strokeMiterlimit="10"/>
</g>
</svg>
