<svg width="20" height="20" viewBox="0 0 20 20" fill="none" xmlns="http://www.w3.org/2000/svg">
<path d="M17.0715 2.9311C17.0715 2.9311 16.8055 5.76205 15.5473 7.03231C14.2784 8.31329 10.7861 9.21647 10.7861 9.21647C10.7861 9.21647 11.6893 5.72414 12.9703 4.4553C14.2405 3.1971 17.0715 2.9311 17.0715 2.9311Z" fill="#4B9770"/>
<path d="M2.92915 2.93023C2.92915 2.93023 5.76009 3.19622 7.03035 4.45443C8.31134 5.72326 9.21452 9.2156 9.21452 9.2156C9.21452 9.2156 5.72219 8.31242 4.45335 7.03143C3.19514 5.76117 2.92915 2.93023 2.92915 2.93023Z" fill="#4B9770"/>
<path d="M2.92939 17.0717C2.92939 17.0717 5.76034 16.8057 7.0306 15.5475C8.31158 14.2787 9.21476 10.7864 9.21476 10.7864C9.21476 10.7864 5.72243 11.6895 4.45359 12.9705C3.19539 14.2408 2.92939 17.0717 2.92939 17.0717Z" fill="#4B9770"/>
<path d="M17.0717 17.0728C17.0717 17.0728 16.8057 14.2419 15.5475 12.9716C14.2787 11.6906 10.7864 10.7874 10.7864 10.7874C10.7864 10.7874 11.6895 14.2798 12.9705 15.5486C14.2408 16.8068 17.0717 17.0728 17.0717 17.0728Z" fill="#4B9770"/>
<path d="M10.0014 2.92773C10.0014 2.92773 11.2839 4.47621 11.2899 5.74045C11.296 7.01536 10.0014 9.21313 10.0014 9.21313C10.0014 9.21313 8.70684 7.01536 8.71291 5.74045C8.71894 4.47621 10.0014 2.92773 10.0014 2.92773Z" fill="#4B9770"/>
<path d="M2.92969 9.99858C2.92969 9.99858 4.47816 8.7161 5.7424 8.71008C7.01732 8.704 9.21508 9.99858 9.21508 9.99858C9.21508 9.99858 7.01732 11.2932 5.7424 11.2871C4.47816 11.2811 2.92969 9.99858 2.92969 9.99858Z" fill="#4B9770"/>
<path d="M10.0014 17.0703C10.0014 17.0703 11.2839 15.5218 11.2899 14.2576C11.296 12.9827 10.0014 10.7849 10.0014 10.7849C10.0014 10.7849 8.70684 12.9827 8.71291 14.2576C8.71894 15.5218 10.0014 17.0703 10.0014 17.0703Z" fill="#4B9770"/>
<path d="M17.0723 9.99858C17.0723 9.99858 15.5238 8.7161 14.2596 8.71008C12.9846 8.704 10.7869 9.99858 10.7869 9.99858C10.7869 9.99858 12.9846 11.2932 14.2596 11.2871C15.5238 11.2811 17.0723 9.99858 17.0723 9.99858Z" fill="#4B9770"/>
</svg>
