<svg width="232" height="49" viewBox="0 0 232 49" fill="none" xmlns="http://www.w3.org/2000/svg">
<path d="M193.04 48.2772H155.397V41.9441L175.606 15.6865L182.651 7.36095L175.891 7.71674H156.82V4.1588V0.60087L182.433 0.5V7.37239L191.287 7.36095L191.617 6.93399L170.056 34.8994L164.434 41.5171L169.913 41.1613H193.04V44.7193V48.2772Z" fill="#102822"/>
<path d="M216.657 48.2772H212.637H208.616V7.71674H194.029V4.1588V0.60087H216.657H231.316V7.71674H222.684V0.60087H216.657V7.71674V48.2772Z" fill="#102822"/>
<path d="M121.073 48.2772H117.053H113.032V0.600903V13.3383H120.504V0.600903L139.788 28.3528L144.484 35.8245L143.986 26.7873V0.600903H148.007H152.027V36.6414V48.2772H144.627L124.845 20.0984L120.504 13.3383L121.073 22.0197V48.2772Z" fill="#102822"/>
<path fill-rule="evenodd" clip-rule="evenodd" d="M21.1808 48.2782V6.5001H36.9162V1.17882H21.1808H15.8266H0.68457V3.52125V6.5001H11.1845V1.17882H15.8266V6.5001V48.2782H21.1808Z" fill="#102822"/>
<path fill-rule="evenodd" clip-rule="evenodd" d="M81.562 45.9904C84.016 47.6635 87.1113 48.5001 90.8481 48.5001C93.6924 48.5001 96.2022 47.9982 98.3773 46.9943C100.552 45.9346 102.309 44.4845 103.648 42.6441C104.986 40.8036 105.851 38.74 106.241 36.4534H103.606H100.971C100.524 38.74 99.3533 40.5526 97.457 41.8912C95.6166 43.2297 93.3857 43.8989 90.7644 43.8989C87.2508 43.8989 84.518 42.7835 82.5659 40.5526C80.6697 38.266 79.7216 35.1427 79.7216 31.1829H100.803H106.325V30.0954C106.325 29.6492 106.297 29.3146 106.241 29.0915C106.074 25.9125 105.293 23.1518 103.899 20.8094C102.56 18.4669 100.748 16.6822 98.4609 15.4553C96.23 14.1725 93.6367 13.5311 90.6807 13.5311C87.2787 13.5311 84.3506 14.3119 81.8967 15.8735C79.4985 17.4352 77.658 19.5545 76.3752 22.2315C75.5016 24.098 75.0916 25.0379 74.84 27.187H79.8368L79.5998 31.1829H74.5362C74.5674 33.9947 75.1247 36.7275 76.2079 39.3814C77.3791 42.0585 79.1638 44.2615 81.562 45.9904ZM100.803 27.187H79.8889C80.0562 25.96 80.3629 25.8009 80.8091 24.574C81.3111 23.347 81.9803 22.2594 82.8169 21.3113C83.7093 20.3074 84.7968 19.5266 86.0796 18.9689C87.3623 18.3554 88.8682 18.0487 90.5971 18.0487C92.5491 18.0487 94.1665 18.4112 95.4492 19.1362C96.732 19.8612 97.7638 20.7815 98.5446 21.8969C99.3254 22.9566 99.8831 24.072 100.218 25.2432C100.608 26.3587 100.803 26.2947 100.803 27.187Z" fill="#102822"/>
<path fill-rule="evenodd" clip-rule="evenodd" d="M39.7318 48.2782V1.17882H42.4507L45.1696 1.3007V22.6789C45.0312 24.0901 45.1696 29.417 45.1696 29.417C45.1696 29.417 45.1696 31.4251 45.1696 32.1322V48.2782H39.7318ZM52.3844 15.0816C52.3314 15.0981 53.0786 14.8277 53.0263 14.8449L53.1844 14.7501L52.3844 15.0816ZM52.3844 15.0816C53.5959 14.705 55.7956 14.2295 57.3836 14.2295C59.726 14.2295 61.6781 14.592 63.2397 15.317C64.8013 15.9863 66.0562 16.9344 67.0043 18.1614C67.9524 19.3884 68.6496 20.7827 69.0957 22.3443C69.5977 23.8501 69.9323 25.3838 70.0996 26.9455C70.2669 28.5071 70.3506 30.0129 70.3506 31.463V48.2782H65.0802V31.463C65.0802 29.009 64.8013 26.8618 64.2436 25.0213C63.7416 23.1251 62.8214 21.675 61.4829 20.6711C57.3836 17.2446 52.3844 19.25 52.3844 19.25V15.0816Z" fill="#102822"/>
</svg>
