<svg width="165" height="28" viewBox="0 0 165 28" fill="none" xmlns="http://www.w3.org/2000/svg">
<path d="M29.5622 12.11C28.3295 10.9217 27.1287 9.71078 26.8816 9.40822L26.8815 9.408C25.7491 8.02453 25.2758 6.9175 25.2758 5.7506C25.2758 3.988 26.5466 2.53673 28.372 2.24493L28.3726 2.24482C28.9136 2.15691 29.5356 2.2257 30.117 2.42141C30.699 2.61729 31.2201 2.93344 31.5691 3.31966C31.645 3.40365 31.722 3.48207 31.7858 3.54114C31.8172 3.57021 31.849 3.59793 31.8778 3.61994C31.8918 3.63058 31.9101 3.64381 31.9306 3.65563C31.9408 3.66153 31.9562 3.66975 31.9751 3.67713C31.9905 3.68313 32.0276 3.69645 32.0762 3.69645C32.1158 3.69645 32.1468 3.68751 32.158 3.68413C32.1731 3.67959 32.186 3.67447 32.195 3.67065C32.2131 3.66295 32.2308 3.65395 32.2456 3.64601C32.2761 3.62972 32.3122 3.60833 32.35 3.58503C32.4266 3.53787 32.5235 3.47462 32.6234 3.40784L32.6234 3.40787L32.6269 3.40545C32.6676 3.37727 32.7071 3.34987 32.7443 3.32407C32.795 3.2889 32.8415 3.25671 32.8808 3.22956C32.9148 3.20606 32.9426 3.18698 32.9624 3.17352L32.9803 3.16156L32.996 3.15398L33.0203 3.13374C33.1289 3.0435 33.1204 2.92034 33.1142 2.88083C33.1072 2.8353 33.0904 2.79938 33.0814 2.78147C33.0613 2.74167 33.0337 2.70263 33.0094 2.67065C32.9579 2.60297 32.8847 2.52012 32.8031 2.43423C32.6391 2.26147 32.421 2.05502 32.2263 1.89775C31.3576 1.19483 30.3501 0.811565 29.2256 0.74904C27.6441 0.658912 26.2119 1.21546 25.1482 2.32322L25.1478 2.3236C24.191 3.32403 23.7233 4.52931 23.7522 5.82584C23.781 7.11738 24.3016 8.47926 25.2835 9.80714L25.284 9.80771C25.9335 10.6811 26.6108 11.3896 28.7109 13.3857L28.7113 13.386C30.736 15.3025 31.3596 15.9807 32.0522 16.9942L32.0522 16.9942L32.0534 16.996C32.876 18.1792 33.2588 19.2382 33.3307 20.4465C33.4152 21.9158 32.9087 23.2859 31.9028 24.324L31.9017 24.3252C31.3987 24.8507 30.9941 25.1439 30.3106 25.4816C28.8312 26.2015 27.1116 26.2262 25.6344 25.5575C24.9042 25.2259 24.3589 24.8472 23.8585 24.3306L23.4424 23.9008L23.2874 23.7407L23.1052 23.8691L22.73 24.1337L22.7294 24.1341L22.3473 24.4053L22.1288 24.5604L22.2901 24.7744L22.4183 24.9444C22.5319 25.1008 22.7846 25.3554 23.046 25.5974C23.3134 25.8448 23.6152 26.1023 23.8391 26.2634C24.7488 26.9297 26.0992 27.4003 27.302 27.4895L27.3021 27.4895C29.7234 27.6674 31.9931 26.7022 33.4211 24.8633C35.4055 22.3121 35.3318 19.0778 33.2864 16.1305C32.5466 15.0548 31.8528 14.3172 29.5622 12.11ZM29.5622 12.11L29.3815 12.2975L29.5622 12.11ZM32.9891 3.15583C32.989 3.15591 32.9881 3.15646 32.9867 3.15733C32.9885 3.15617 32.9892 3.15573 32.9891 3.15583Z" fill="#FFF7E1" stroke="#FFF7E1" strokeWidth="0.520833"/>
<path d="M1 1.25814H0.739583V1.51855V14.1495V26.7804V27.0408H1H1.47754H1.95508H2.2155V26.7804V14.1495V1.51855V1.25814H1.95508H1.47754H1Z" fill="#FFF7E1" stroke="#FFF7E1" strokeWidth="0.520833"/>
<path d="M5.70801 1.25814H5.44759V1.51855V14.1495V26.7804V27.0408H5.70801H6.21966H6.73131H6.99173V26.7804V14.7447C6.99173 11.4351 6.99684 8.42643 7.00452 6.24532C7.00835 5.15471 7.01283 4.27128 7.01762 3.66064C7.01918 3.46267 7.02076 3.29361 7.02237 3.15559C7.02858 3.15989 7.03487 3.16426 7.04124 3.16868C7.25609 3.3182 7.53854 3.5283 7.84669 3.76703C8.46367 4.245 9.17161 4.82831 9.63101 5.25414L9.6312 5.25431C13.4819 8.81677 15.9362 13.0874 16.948 18.0045L16.9481 18.0046C17.3457 19.932 17.3999 20.5612 17.4339 23.8271L17.4339 23.8274L17.468 26.7834L17.471 27.0408H17.7284H18.2332H18.7381H18.9985V26.7804V14.1495V1.51855V1.25814H18.7381H18.2264H17.7148H17.4549L17.4544 1.51805L17.4407 8.57392V8.57418L17.4245 14.1649C17.0438 13.1843 16.5414 12.0325 16.207 11.379L16.2065 11.378C14.8422 8.73977 13.3787 6.79276 11.183 4.67105C9.8364 3.36567 8.97815 2.66741 7.66687 1.79768C7.66678 1.79763 7.66669 1.79757 7.66661 1.79751L6.92357 1.30191L6.85795 1.25814H6.77907H6.24013H5.70801Z" fill="#FFF7E1" stroke="#FFF7E1" strokeWidth="0.520833"/>
<path d="M38.3838 1.25814H38.1234V1.51855V14.1495V26.7804V27.0408H38.3838H38.8613H39.3389H39.5993V26.7804V14.1495V1.51855V1.25814H39.3389H38.8613H38.3838Z" fill="#FFF7E1" stroke="#FFF7E1" strokeWidth="0.520833"/>
<path d="M54.6818 26.9667L54.6818 26.9667L54.6861 26.9671C55.0006 26.9942 55.6825 27.0275 56.2059 27.0342L56.2074 27.0342L57.142 27.0408L57.4043 27.0427V26.7804V18.1504V9.52034V9.25993H57.1439H56.1206H55.0973H54.8369V9.52034V10.0163V10.5123V10.7727H55.0973H55.643H55.9284V18.157V25.5224L55.5452 25.4956L55.5442 25.4955C54.1596 25.4043 52.8163 25.1243 51.7898 24.7134L51.7894 24.7133C47.8996 23.1648 45.2274 19.9307 44.5341 15.9564L44.534 15.956C44.3947 15.1651 44.3417 13.5781 44.4335 12.8599L44.4335 12.8597C44.9405 8.87021 47.3593 5.58599 51.0807 3.83736L51.0809 3.83725C52.5037 3.16699 54.1327 2.79616 56.0414 2.72446C56.0415 2.72446 56.0416 2.72446 56.0417 2.72445L57.1532 2.68479L57.4043 2.67583V2.42454V1.96824V1.51855V1.25814H57.1439H56.1206C52.4486 1.25814 49.1557 2.63525 46.5491 5.24961C44.7125 7.09061 43.4364 9.51332 43.045 11.9319C42.3491 16.1689 43.7076 20.2819 46.7912 23.2643L46.7913 23.2644C48.9198 25.321 51.7913 26.6696 54.6818 26.9667Z" fill="#FFF7E1" stroke="#FFF7E1" strokeWidth="0.520833"/>
<path d="M60.8965 1.25814H60.6361V1.51855V14.1495V26.7804V27.0408H60.8965H61.4081H61.9198H62.1802V26.7804V18.6794V10.8388H65.8766H69.5729V18.6794V26.7804V27.0408H69.8333H70.345H70.8566H71.1171V26.7804V14.1495V1.51855V1.25814H70.8566H70.345H69.8333H69.5729V1.51855V5.51945V9.25993H65.8766H62.1802V5.51945V1.51855V1.25814H61.9198H61.4081H60.8965Z" fill="#FFF7E1" stroke="#FFF7E1" strokeWidth="0.520833"/>
<path d="M74.348 2.44438V2.70299L74.6066 2.70479L76.5022 2.71801L76.5031 2.71802L78.1346 2.73515L78.1547 14.6325L78.1547 14.6327L78.1683 26.7807L78.1686 27.0408H78.4287H78.9063H79.3838H79.6442V26.7804V14.6124V2.7048H81.2599H83.1359H83.3963V2.44438V1.98147V1.51855V1.25814H83.1359H78.8722H74.6084H74.348V1.51855V1.98147V2.44438Z" fill="#FFF7E1" stroke="#FFF7E1" strokeWidth="0.520833"/>
<path d="M102.88 1.25814H102.678L102.628 1.45417L99.4422 13.9395C99.4422 13.9396 99.4421 13.9396 99.4421 13.9396C98.6458 17.0574 97.9111 19.9322 97.3444 22.1495C96.6828 24.7381 96.2503 26.4304 96.2163 26.5668C96.2113 26.5838 96.2046 26.6077 96.1999 26.6325C96.1948 26.659 96.1881 26.7056 96.1972 26.7597C96.2078 26.8218 96.2374 26.8833 96.2899 26.9323C96.3368 26.9761 96.3885 26.9973 96.4247 27.0085C96.4918 27.0293 96.571 27.0347 96.6417 27.0374C96.7193 27.0404 96.8201 27.0408 96.9452 27.0408C97.07 27.0408 97.1717 27.0405 97.2517 27.0368C97.3277 27.0334 97.4077 27.0264 97.4789 27.0037C97.5644 26.9764 97.64 26.9257 97.6931 26.8427C97.7318 26.7823 97.7507 26.7139 97.7608 26.6772L97.7623 26.6715L97.7624 26.6716L97.7636 26.6669C97.7707 26.6394 97.7919 26.5545 97.8242 26.426C97.9114 26.0779 98.0788 25.4098 98.2617 24.6958L98.2619 24.6948L98.6628 23.1053L103.515 23.0862L103.516 23.0862L108.367 23.0735L108.815 24.8599L109.313 26.8438L109.363 27.0408H109.566H110.098C110.294 27.0408 110.443 27.0363 110.544 27.0202C110.588 27.0133 110.664 26.9986 110.73 26.9529C110.769 26.9262 110.817 26.8799 110.843 26.8072C110.868 26.7345 110.859 26.6675 110.843 26.6195L110.841 26.6112L110.828 26.5616C110.816 26.5174 110.799 26.4524 110.777 26.3676C110.732 26.1981 110.668 25.9506 110.587 25.6336C110.423 24.9997 110.189 24.0883 109.902 22.967C109.327 20.7244 108.539 17.6428 107.676 14.2636C107.095 11.9871 106.546 9.83556 106.071 7.97769C105.139 4.32335 104.496 1.80507 104.468 1.70593L104.468 1.70593L104.468 1.70371L104.392 1.4458L104.338 1.25814H104.142H103.515H102.88ZM110.844 26.6213L110.844 26.6209C110.845 26.6252 110.845 26.6263 110.844 26.6213ZM99.1428 21.4662C99.1212 21.4657 99.1005 21.4652 99.0807 21.4647C99.1139 21.327 99.1588 21.1445 99.2141 20.9225C99.343 20.4052 99.5277 19.6762 99.7497 18.8065C100.194 17.067 100.787 14.766 101.382 12.4723C101.976 10.1786 102.573 7.89245 103.023 6.18278C103.228 5.40384 103.402 4.7449 103.533 4.25952C103.654 4.71612 103.815 5.33021 104.006 6.06698C104.439 7.73054 105.029 10.0183 105.671 12.5276L105.671 12.5279C105.784 12.9693 105.896 13.4038 106.005 13.8295C106.517 15.8243 106.979 17.6227 107.334 18.9989C107.549 19.8339 107.724 20.5135 107.847 20.9874C107.896 21.1794 107.938 21.3378 107.969 21.4592C107.827 21.4661 107.625 21.472 107.348 21.4767C106.634 21.4891 105.442 21.4941 103.542 21.4941C102.226 21.4941 101.031 21.4891 100.166 21.4809C99.7331 21.4767 99.3836 21.4718 99.1428 21.4662Z" fill="#FFF7E1" stroke="#FFF7E1" strokeWidth="0.520833"/>
<path d="M124.218 10.7727H123.967H123.455H123.195V10.5123V10.0163V9.52034V9.25993H123.455H124.479H125.502H125.762V9.52034V18.1504V26.7804V27.0426L125.5 27.0408L124.532 27.0342L124.53 27.0342C123.988 27.0275 123.297 26.9944 122.984 26.9599C122.984 26.9599 122.984 26.9599 122.984 26.9599L123.012 26.701C121.122 26.496 119.008 25.762 117.432 24.7568L124.218 10.7727ZM124.218 10.7727V18.157V25.5224L123.835 25.4956L123.834 25.4955C122.441 25.4046 121.029 25.0862 119.871 24.6087M124.218 10.7727L117.292 24.9765C112.375 21.8552 110.115 16.0977 111.669 10.6394L111.669 10.6389C112.36 8.23158 113.912 5.91175 115.917 4.28557L115.917 4.28546C118.372 2.29697 121.302 1.25814 124.479 1.25814H125.502H125.762V1.51855V1.98147V2.44438V2.7048H125.502H124.909C121.395 2.71135 118.433 3.85364 116.139 6.07033C114.358 7.79734 113.218 9.96833 112.825 12.4052C112.75 12.8705 112.724 13.6334 112.744 14.4055C112.765 15.1782 112.831 15.9297 112.931 16.3738L112.931 16.3749C113.752 20.0934 116.326 23.1463 119.871 24.6087M119.871 24.6087L119.772 24.8494M119.871 24.6087L119.772 24.8494M119.772 24.8494C116.149 23.3548 113.516 20.2335 112.677 16.431L123.817 25.7554C122.398 25.6628 120.959 25.3388 119.772 24.8494Z" fill="#FFF7E1" stroke="#FFF7E1" strokeWidth="0.520833"/>
<path d="M129.255 1.25814H128.994V1.51855V14.1495V26.7804V27.0408H129.255H131.847H134.44H134.7V26.7804V26.2844V25.7884V25.528H134.44H132.359H130.539V18.1834V10.8389H132.359H134.44H134.7V10.5784V10.0494V9.52034V9.25993H134.44H132.359H130.539V6.01543V2.77093H132.359H134.44H134.7V2.51051V2.01453V1.51855V1.25814H134.44H131.847H129.255Z" fill="#FFF7E1" stroke="#FFF7E1" strokeWidth="0.520833"/>
<path d="M138.192 1.25814H137.932V1.51855V14.1495V26.7804V27.0408H138.192H138.704H139.216H139.476V26.7804V14.7447C139.476 11.4351 139.481 8.42643 139.489 6.24532C139.493 5.15471 139.497 4.27128 139.502 3.66064C139.504 3.46668 139.505 3.30048 139.507 3.16403C139.52 3.17297 139.533 3.18217 139.547 3.19161C139.785 3.35669 140.104 3.58909 140.457 3.85549C141.27 4.47448 142.671 5.74066 143.481 6.60358L143.481 6.60454C146.592 9.88784 148.731 14.1007 149.534 18.4945C149.837 20.1729 149.884 20.778 149.918 23.8273L149.918 23.8274L149.952 26.7834L149.955 27.0408H150.213H150.718H151.222H151.483V26.7804V14.1495V1.51855V1.25814H151.222H150.711H150.199H149.939L149.939 1.51805L149.925 8.57392V8.57418L149.909 14.1788C148.531 10.5523 146.675 7.64921 144.073 5.04444L144.072 5.0438C142.732 3.7109 141.532 2.71441 140.117 1.77141L140.117 1.77141L140.117 1.77091L139.407 1.30139L139.342 1.25814H139.263H138.725H138.192Z" fill="#FFF7E1" stroke="#FFF7E1" strokeWidth="0.520833"/>
<path d="M154.712 2.44438V2.7048H154.973H156.849H158.464V14.6124V26.7804V27.0408H158.725H159.236H159.748H160.008V26.7804V14.6124V2.7048H161.624H163.5H163.761V2.44438V1.98147V1.51855V1.25814H163.5H159.236H154.973H154.712V1.51855V1.98147V2.44438Z" fill="#FFF7E1" stroke="#FFF7E1" strokeWidth="0.520833"/>
</svg>
