<svg width="126" height="26" viewBox="0 0 126 26" fill="none" xmlns="http://www.w3.org/2000/svg">
<path d="M104.73 25.8796H84.34V22.4491L95.2867 8.22613L99.1026 3.71639L95.4409 3.90911H85.1109V1.98188V0.0546388L98.9848 0V3.72259L103.781 3.71639L103.959 3.48512L92.2802 18.6332L89.2352 22.2179L92.2031 22.0252H104.73V23.9524V25.8796Z" fill="white"/>
<path d="M117.523 25.8796H115.345H113.167V3.90911H105.266V1.98188V0.0546388H117.523H125.463V3.90911H120.788V0.0546388H117.523V3.90911V25.8796Z" fill="white"/>
<path d="M65.7478 25.8797H63.57H61.3922V0.0546566V6.95417H65.4394V0.0546566L75.885 15.0871L78.429 19.1343L78.1592 14.2391V0.0546566H80.337H82.5147V19.5768V25.8797H78.5061L67.7906 10.6159L65.4394 6.95417L65.7478 11.6566V25.8797Z" fill="white"/>
<path fill-rule="evenodd" clip-rule="evenodd" d="M11.639 25.8797V3.24964H20.1625V0.367249H11.639H8.7388H0.536743V1.63608V3.24964H6.22429V0.367249H8.7388V3.24964V25.8797H11.639Z" fill="white"/>
<path fill-rule="evenodd" clip-rule="evenodd" d="M44.3459 24.6405C45.6751 25.5468 47.3518 25.9999 49.3759 25.9999C50.9166 25.9999 52.2761 25.728 53.4543 25.1843C54.6325 24.6103 55.5841 23.8248 56.3091 22.8279C57.0342 21.8309 57.5024 20.7131 57.7139 19.4745H56.2865H54.859C54.6174 20.7131 53.9829 21.695 52.9558 22.42C51.9589 23.1451 50.7505 23.5076 49.3306 23.5076C47.4273 23.5076 45.947 22.9034 44.8897 21.695C43.8625 20.4564 43.349 18.7646 43.349 16.6197H54.7684H57.7592V16.0306C57.7592 15.7889 57.7441 15.6076 57.7139 15.4868C57.6233 13.7648 57.2003 12.2694 56.4451 11.0006C55.72 9.73176 54.7382 8.76503 53.4996 8.10041C52.2912 7.40558 50.8864 7.05816 49.2853 7.05816C47.4424 7.05816 45.8564 7.4811 44.5272 8.32698C43.2281 9.17287 42.2312 10.3209 41.5364 11.7709C41.0631 12.7819 40.841 13.291 40.7047 14.4552H43.4114L43.283 16.6197H40.5402C40.5571 18.1427 40.859 19.623 41.4457 21.0606C42.0801 22.5107 43.0469 23.704 44.3459 24.6405ZM54.7684 14.4552H43.4396C43.5302 13.7906 43.6964 13.7044 43.9381 13.0398C44.21 12.3751 44.5725 11.786 45.0256 11.2725C45.509 10.7287 46.0981 10.3058 46.7929 10.0036C47.4878 9.67134 48.3034 9.50518 49.2399 9.50518C50.2973 9.50518 51.1734 9.70155 51.8682 10.0943C52.5631 10.487 53.1219 10.9855 53.5449 11.5897C53.9678 12.1637 54.2699 12.7679 54.4512 13.4023C54.6627 14.0065 54.7684 13.9718 54.7684 14.4552Z" fill="white"/>
<path fill-rule="evenodd" clip-rule="evenodd" d="M21.6876 25.8797V0.367249H23.1603L24.6331 0.433265V12.0133C24.5581 12.7777 24.6331 15.6631 24.6331 15.6631C24.6331 15.6631 24.6331 16.7509 24.6331 17.1339V25.8797H21.6876ZM28.5412 7.898C28.5124 7.90693 28.9172 7.76047 28.8889 7.7698L28.9745 7.71843L28.5412 7.898ZM28.5412 7.898C29.1974 7.69401 30.3889 7.43643 31.2491 7.43643C32.5179 7.43643 33.5753 7.63279 34.4212 8.02552C35.2671 8.38805 35.9468 8.90162 36.4604 9.56624C36.9739 10.2309 37.3516 10.9861 37.5932 11.832C37.8651 12.6477 38.0464 13.4785 38.137 14.3243C38.2276 15.1702 38.273 15.9859 38.273 16.7714V25.8797H35.4181V16.7714C35.4181 15.4421 35.2671 14.279 34.965 13.2821C34.6931 12.2549 34.1946 11.4695 33.4695 10.9257C31.2491 9.06967 28.5412 10.1559 28.5412 10.1559V7.898Z" fill="white"/>
</svg>
