<svg width="26" height="26" viewBox="0 0 26 26" fill="none" xmlns="http://www.w3.org/2000/svg">
<g clipPath="url(#clip0_432_331)">
<path d="M7.46319 18.9951L4.82455 20.5186C3.853 21.0794 2.6107 20.7466 2.04977 19.7751L1.03415 18.016C0.473319 17.0444 0.806138 15.8022 1.77768 15.2412L4.41632 13.7178M7.46319 18.9951L4.41632 13.7178M7.46319 18.9951L16.9026 17.0635L10.8089 6.50881L4.41632 13.7178" stroke="#A09F9B" strokeWidth="0.928571" strokeMiterlimit="10" strokeLinecap="round" strokeLinejoin="round"/>
<path d="M9.19087 25.0339C8.46221 25.4546 7.53053 25.2049 7.10986 24.4763L4.82471 20.5183L7.46329 18.9949L9.74844 22.9529C10.1692 23.6815 9.91952 24.6132 9.19087 25.0339Z" stroke="#A09F9B" strokeWidth="0.928571" strokeMiterlimit="10" strokeLinecap="round" strokeLinejoin="round"/>
<path d="M17.2834 17.7227L10.428 5.84866" stroke="#A09F9B" strokeWidth="0.928571" strokeMiterlimit="10" strokeLinecap="round" strokeLinejoin="round"/>
<path d="M21.4297 6.85547H19.9062" stroke="#A09F9B" strokeWidth="0.928571" strokeMiterlimit="10" strokeLinecap="round" strokeLinejoin="round"/>
<path d="M21.4297 3.80859H19.9062" stroke="#A09F9B" strokeWidth="0.928571" strokeMiterlimit="10" strokeLinecap="round" strokeLinejoin="round"/>
<path d="M22.6992 13.1524H18.5352L20.2816 14.9148C20.201 15.1658 20.16 15.4278 20.1602 15.6914C20.1602 17.0937 21.2969 18.2305 22.6992 18.2305C24.1015 18.2305 25.2383 17.0937 25.2383 15.6914C25.2383 14.2891 24.1015 13.1524 22.6992 13.1524Z" stroke="#A09F9B" strokeWidth="0.928571" strokeMiterlimit="10" strokeLinecap="round" strokeLinejoin="round"/>
<path d="M20.668 0.761746C18.1439 0.761746 16.0977 2.80792 16.0977 5.33204C16.0977 6.26794 16.3792 7.13797 16.8619 7.86252L16.3516 9.64844L18.1375 9.13814C18.862 9.62081 19.7321 9.90234 20.668 9.90234C23.192 9.90234 25.2383 7.85617 25.2383 5.33204C25.2383 2.80792 23.192 0.761746 20.668 0.761746Z" stroke="#A09F9B" strokeWidth="0.928571" strokeMiterlimit="10" strokeLinecap="round" strokeLinejoin="round"/>
</g>
<defs>
<clipPath id="clip0_432_331">
<rect width="26" height="26" fill="white"/>
</clipPath>
</defs>
</svg>
