<svg width="20" height="20" viewBox="0 0 20 20" fill="none" xmlns="http://www.w3.org/2000/svg">
<path d="M10.0019 0.0012207C10.0019 0.0012207 11.8156 2.19109 11.8242 3.97898C11.8327 5.78198 10.0019 8.89008 10.0019 8.89008C10.0019 8.89008 8.17112 5.78198 8.17972 3.97898C8.18824 2.19109 10.0019 0.0012207 10.0019 0.0012207Z" fill="#954767"/>
<path d="M0.000976409 10.0008C0.000976409 10.0008 2.19084 8.18706 3.97874 8.17854C5.78174 8.16994 8.88984 10.0008 8.88984 10.0008C8.88984 10.0008 5.78174 11.8316 3.97874 11.823C2.19084 11.8144 0.000976409 10.0008 0.000976409 10.0008Z" fill="#954767"/>
<path d="M9.99998 20.0002C9.99998 20.0002 11.8137 17.8104 11.8222 16.0225C11.8308 14.2195 9.99998 11.1114 9.99998 11.1114C9.99998 11.1114 8.16917 14.2195 8.17776 16.0225C8.18629 17.8104 9.99998 20.0002 9.99998 20.0002Z" fill="#954767"/>
<path d="M20.001 10.001C20.001 10.001 17.8111 8.1873 16.0232 8.17878C14.2202 8.17019 11.1121 10.001 11.1121 10.001C11.1121 10.001 14.2202 11.8318 16.0232 11.8232C17.8111 11.8147 20.001 10.001 20.001 10.001Z" fill="#954767"/>
<path d="M4.99902 4.99879C4.99902 4.99879 7.00081 5.18687 7.89902 6.07656C8.80482 6.97377 9.44346 9.44323 9.44346 9.44323C9.44346 9.44323 6.974 8.80458 6.07679 7.89879C5.1871 7.00057 4.99902 4.99879 4.99902 4.99879Z" fill="#954767"/>
<path d="M4.99903 14.9985C4.99903 14.9985 5.18712 12.9968 6.07681 12.0985C6.97401 11.1927 9.44347 10.5541 9.44347 10.5541C9.44347 10.5541 8.80483 13.0236 7.89903 13.9208C7.00082 14.8105 4.99903 14.9985 4.99903 14.9985Z" fill="#954767"/>
<path d="M14.999 14.999C14.999 14.999 14.8109 12.9972 13.9212 12.099C13.024 11.1932 10.5546 10.5546 10.5546 10.5546C10.5546 10.5546 11.1932 13.024 12.099 13.9213C12.9972 14.8109 14.999 14.999 14.999 14.999Z" fill="#954767"/>
<path d="M14.999 4.99879C14.999 4.99879 12.9972 5.18687 12.099 6.07656C11.1932 6.97377 10.5546 9.44323 10.5546 9.44323C10.5546 9.44323 13.024 8.80458 13.9213 7.89879C14.8109 7.00057 14.999 4.99879 14.999 4.99879Z" fill="#954767"/>
</svg>
